<?xml version="1.0" encoding="utf-8"?>
<!-- Generator: Adobe Illustrator 15.0.0, SVG Export Plug-In . SVG Version: 6.00 Build 0)  -->
<!DOCTYPE svg PUBLIC "-//W3C//DTD SVG 1.1//EN" "http://www.w3.org/Graphics/SVG/1.1/DTD/svg11.dtd">
<svg version="1.1" id="Layer_1" xmlns="http://www.w3.org/2000/svg" xmlns:xlink="http://www.w3.org/1999/xlink" x="0px" y="0px"
	 width="208px" height="87.977px" viewBox="0 0 208 87.977" enable-background="new 0 0 208 87.977" xml:space="preserve">
<path fill="#929497" d="M22.442,44.661c-0.09-0.047-0.188-0.092-0.274-0.141c-2.159-1.199-4.052-2.895-5.676-5.078
	c-1.903-2.56-3.05-5.32-3.442-8.28c-0.391-2.962,0.01-5.774,1.201-8.441c1.194-2.666,3.109-4.979,5.746-6.938
	c3.783-2.814,7.93-3.889,12.434-3.221c4.506,0.668,8.163,2.889,10.971,6.666c1.654,2.225,2.758,4.689,3.312,7.389l7.806-5.803
	c-0.92-2.459-2.164-4.755-3.744-6.881c-2.852-3.834-6.443-6.721-10.777-8.659s-8.697-2.659-13.086-2.165
	c-4.389,0.494-8.554,2.209-12.496,5.139c-6.094,4.527-9.633,10.199-10.62,17.011C2.81,32.071,4.602,38.55,9.171,44.696
	c1.698,2.283,3.53,4.193,5.491,5.748L22.442,44.661z"/>
<path fill="#6B469B" d="M99.758,6.289L97.41,8.527c-1.598-1.688-3.395-2.531-5.391-2.531c-1.684,0-3.104,0.575-4.258,1.728
	c-1.153,1.151-1.73,2.571-1.73,4.26c0,1.176,0.256,2.22,0.767,3.132c0.511,0.912,1.233,1.628,2.168,2.148
	c0.935,0.52,1.972,0.779,3.114,0.779c0.975,0,1.864-0.182,2.671-0.546c0.806-0.364,1.692-1.026,2.659-1.985l2.275,2.374
	c-1.303,1.271-2.533,2.153-3.692,2.646c-1.159,0.492-2.481,0.737-3.968,0.737c-2.741,0-4.984-0.869-6.73-2.607
	c-1.747-1.738-2.62-3.965-2.62-6.683c0-1.759,0.397-3.321,1.192-4.688c0.795-1.367,1.935-2.466,3.417-3.296
	c1.482-0.832,3.079-1.247,4.789-1.247c1.454,0,2.854,0.308,4.202,0.921C97.622,4.283,98.783,5.156,99.758,6.289z"/>
<path fill="#6B469B" d="M111.348,7.781h3.271v13.043h-3.271v-1.379c-0.64,0.607-1.279,1.045-1.923,1.313
	c-0.643,0.268-1.339,0.402-2.089,0.402c-1.686,0-3.142-0.654-4.371-1.961c-1.229-1.307-1.844-2.93-1.844-4.872
	c0-2.015,0.595-3.664,1.784-4.951c1.189-1.286,2.634-1.93,4.335-1.93c0.781,0,1.516,0.147,2.203,0.443
	c0.686,0.296,1.32,0.739,1.902,1.331V7.781H111.348z M107.907,10.467c-1.013,0-1.853,0.357-2.521,1.073
	c-0.67,0.716-1.005,1.632-1.005,2.751c0,1.127,0.341,2.055,1.021,2.781c0.681,0.726,1.52,1.091,2.516,1.091
	c1.027,0,1.88-0.358,2.557-1.073c0.678-0.715,1.017-1.652,1.017-2.811c0-1.135-0.339-2.055-1.017-2.758
	C109.798,10.818,108.941,10.467,107.907,10.467z"/>
<path fill="#6B469B" d="M117.292,7.781h3.271V9.28c0.562-0.615,1.183-1.075,1.867-1.379c0.684-0.304,1.428-0.455,2.236-0.455
	c0.814,0,1.551,0.2,2.207,0.599c0.656,0.4,1.184,0.983,1.584,1.75c0.52-0.767,1.157-1.35,1.913-1.75
	c0.755-0.398,1.581-0.599,2.478-0.599c0.928,0,1.742,0.216,2.447,0.647c0.703,0.432,1.209,0.994,1.518,1.689
	c0.308,0.695,0.461,1.826,0.461,3.393v7.648h-3.297v-6.617c0-1.479-0.184-2.479-0.551-3.003s-0.919-0.785-1.654-0.785
	c-0.56,0-1.061,0.16-1.504,0.479c-0.442,0.32-0.772,0.762-0.988,1.324c-0.217,0.564-0.323,1.469-0.323,2.716v5.886h-3.297v-6.317
	c0-1.167-0.086-2.012-0.259-2.536c-0.174-0.521-0.432-0.912-0.774-1.168c-0.347-0.256-0.762-0.384-1.25-0.384
	c-0.545,0-1.039,0.161-1.483,0.485c-0.444,0.324-0.777,0.777-0.998,1.361c-0.22,0.583-0.33,1.502-0.33,2.757v5.802h-3.271
	L117.292,7.781L117.292,7.781z"/>
<path fill="#6B469B" d="M152.844,15.25H142.33c0.152,0.928,0.559,1.664,1.217,2.212c0.659,0.548,1.5,0.821,2.523,0.821
	c1.223,0,2.272-0.428,3.152-1.283l2.758,1.295c-0.688,0.975-1.512,1.696-2.471,2.164c-0.959,0.467-2.098,0.701-3.417,0.701
	c-2.045,0-3.711-0.646-4.998-1.937c-1.286-1.29-1.93-2.907-1.93-4.849c0-1.99,0.642-3.643,1.924-4.957s2.892-1.972,4.824-1.972
	c2.055,0,3.726,0.657,5.012,1.972c1.286,1.314,1.931,3.051,1.931,5.209L152.844,15.25z M149.57,12.673
	c-0.215-0.728-0.643-1.319-1.277-1.774c-0.637-0.455-1.375-0.684-2.216-0.684c-0.912,0-1.713,0.256-2.401,0.768
	c-0.433,0.32-0.833,0.883-1.199,1.69H149.57z"/>
<path fill="#6B469B" d="M154.75,7.781h2.805v1.643c0.305-0.646,0.707-1.139,1.211-1.475c0.504-0.336,1.055-0.503,1.654-0.503
	c0.424,0,0.867,0.112,1.33,0.335l-1.018,2.817c-0.385-0.191-0.7-0.288-0.947-0.288c-0.504,0-0.93,0.313-1.277,0.936
	c-0.347,0.623-0.521,1.846-0.521,3.668l0.013,0.636v5.274h-3.248L154.75,7.781L154.75,7.781z"/>
<path fill="#6B469B" d="M168.881,7.446c1.23,0,2.387,0.308,3.471,0.923c1.082,0.615,1.928,1.451,2.535,2.506s0.91,2.193,0.91,3.416
	c0,1.23-0.305,2.381-0.916,3.452c-0.611,1.071-1.445,1.908-2.5,2.512c-1.055,0.603-2.218,0.905-3.488,0.905
	c-1.869,0-3.467-0.666-4.789-1.996c-1.321-1.33-1.983-2.947-1.983-4.85c0-2.037,0.748-3.735,2.241-5.094
	C165.672,8.037,167.178,7.446,168.881,7.446z M168.936,10.527c-1.018,0-1.863,0.354-2.541,1.061
	c-0.676,0.707-1.014,1.612-1.014,2.715c0,1.135,0.334,2.055,1.002,2.758s1.516,1.055,2.539,1.055c1.025,0,1.878-0.355,2.559-1.066
	c0.681-0.712,1.021-1.627,1.021-2.746c0-1.119-0.335-2.027-1.003-2.727C170.831,10.877,169.975,10.527,168.936,10.527z"/>
<path fill="#6B469B" d="M177.857,7.781h3.271v1.337c0.742-0.626,1.415-1.061,2.018-1.306c0.604-0.244,1.22-0.366,1.851-0.366
	c1.293,0,2.39,0.451,3.291,1.354c0.759,0.768,1.138,1.902,1.138,3.404v8.619h-3.236v-5.711c0-1.557-0.068-2.591-0.209-3.102
	c-0.14-0.512-0.383-0.9-0.729-1.168c-0.349-0.268-0.774-0.4-1.286-0.4c-0.66,0-1.229,0.221-1.704,0.664
	c-0.475,0.443-0.803,1.057-0.985,1.838c-0.096,0.407-0.146,1.289-0.146,2.646v5.232h-3.271V7.781H177.857z"/>
<path fill="#929497" d="M83.311,24.373h3.332v17.634h-3.332V24.373z"/>
<path fill="#929497" d="M89.446,28.964h3.273v1.337c0.742-0.626,1.414-1.061,2.017-1.306s1.219-0.366,1.85-0.366
	c1.292,0,2.39,0.451,3.292,1.354c0.758,0.768,1.137,1.902,1.137,3.404v8.62h-3.236v-5.712c0-1.557-0.07-2.59-0.209-3.102
	c-0.141-0.511-0.383-0.899-0.73-1.167c-0.347-0.268-0.775-0.401-1.285-0.401c-0.662,0-1.23,0.222-1.704,0.664
	c-0.475,0.443-0.804,1.057-0.987,1.838c-0.096,0.408-0.143,1.29-0.143,2.646v5.233h-3.273V28.964H89.446z"/>
<path fill="#929497" d="M103.96,24.156h3.272v4.808h1.941v2.817h-1.941v10.226h-3.272V31.781h-1.679v-2.817h1.679V24.156z"/>
<path fill="#929497" d="M123.377,36.433h-10.514c0.152,0.928,0.559,1.664,1.218,2.213c0.659,0.547,1.501,0.819,2.522,0.819
	c1.224,0,2.273-0.428,3.153-1.282l2.757,1.295c-0.688,0.976-1.511,1.696-2.47,2.164c-0.959,0.467-2.099,0.7-3.416,0.7
	c-2.047,0-3.713-0.645-4.999-1.936c-1.287-1.291-1.931-2.907-1.931-4.85c0-1.99,0.642-3.642,1.924-4.957
	c1.282-1.314,2.892-1.971,4.826-1.971c2.053,0,3.724,0.656,5.01,1.971c1.287,1.315,1.931,3.051,1.931,5.208L123.377,36.433z
	 M120.105,33.855c-0.217-0.729-0.643-1.319-1.278-1.775c-0.638-0.455-1.375-0.683-2.216-0.683c-0.913,0-1.713,0.256-2.401,0.767
	c-0.433,0.32-0.832,0.884-1.201,1.691H120.105z"/>
<path fill="#929497" d="M125.053,23.93h3.273v18.077h-3.273V23.93z"/>
<path fill="#929497" d="M130.326,23.93h3.271v18.077h-3.271V23.93z"/>
<path fill="#929497" d="M149.023,36.433h-10.513c0.151,0.928,0.558,1.664,1.218,2.213c0.658,0.547,1.5,0.819,2.522,0.819
	c1.224,0,2.272-0.428,3.153-1.282l2.757,1.295c-0.688,0.976-1.511,1.696-2.47,2.164c-0.959,0.467-2.099,0.7-3.416,0.7
	c-2.047,0-3.713-0.645-5-1.936c-1.286-1.291-1.93-2.907-1.93-4.85c0-1.99,0.641-3.642,1.924-4.957
	c1.282-1.314,2.892-1.971,4.826-1.971c2.053,0,3.723,0.656,5.01,1.971s1.931,3.051,1.931,5.208L149.023,36.433z M145.752,33.855
	c-0.217-0.729-0.643-1.319-1.279-1.775c-0.637-0.455-1.375-0.683-2.216-0.683c-0.913,0-1.713,0.256-2.401,0.767
	c-0.432,0.32-0.832,0.884-1.201,1.691H145.752z"/>
<path fill="#929497" d="M163.827,31.602l-2.726,1.498c-0.512-0.535-1.018-0.907-1.518-1.115c-0.5-0.207-1.086-0.312-1.758-0.312
	c-1.225,0-2.215,0.365-2.971,1.095c-0.758,0.73-1.135,1.666-1.135,2.807c0,1.109,0.363,2.016,1.092,2.718s1.685,1.054,2.869,1.054
	c1.465,0,2.604-0.5,3.42-1.498l2.58,1.767c-1.398,1.819-3.371,2.729-5.922,2.729c-2.294,0-4.09-0.68-5.389-2.036
	c-1.299-1.359-1.948-2.949-1.948-4.771c0-1.263,0.316-2.426,0.947-3.488s1.513-1.898,2.644-2.506s2.396-0.91,3.795-0.91
	c1.295,0,2.457,0.257,3.487,0.772C162.327,29.919,163.171,30.65,163.827,31.602z"/>
<path fill="#929497" d="M166.926,24.156h3.271v4.808h1.943v2.817h-1.943v10.226h-3.271V31.781h-1.679v-2.817h1.679V24.156z"/>
<path fill="#929497" d="M173.633,28.964h3.309v6.281c0,1.224,0.084,2.072,0.252,2.548s0.439,0.845,0.813,1.108
	c0.372,0.265,0.831,0.396,1.376,0.396s1.007-0.129,1.388-0.389c0.381-0.261,0.664-0.644,0.848-1.146
	c0.137-0.377,0.205-1.18,0.205-2.41v-6.39h3.271v5.526c0,2.277-0.18,3.836-0.539,4.676c-0.439,1.021-1.087,1.809-1.941,2.355
	c-0.855,0.547-1.941,0.819-3.262,0.819c-1.431,0-2.586-0.319-3.47-0.959c-0.884-0.639-1.505-1.53-1.864-2.673
	c-0.256-0.792-0.384-2.229-0.384-4.315L173.633,28.964L173.633,28.964z"/>
<path fill="#929497" d="M197.12,28.964h3.272v13.043h-3.272v-1.379c-0.64,0.607-1.279,1.045-1.922,1.313
	c-0.644,0.269-1.339,0.401-2.089,0.401c-1.686,0-3.143-0.653-4.37-1.96c-1.229-1.307-1.845-2.931-1.845-4.872
	c0-2.015,0.595-3.664,1.783-4.951c1.189-1.287,2.635-1.93,4.336-1.93c0.781,0,1.517,0.147,2.202,0.443
	c0.687,0.295,1.321,0.738,1.903,1.33L197.12,28.964L197.12,28.964z M193.68,31.648c-1.012,0-1.852,0.358-2.521,1.074
	c-0.669,0.715-1.005,1.632-1.005,2.75c0,1.126,0.342,2.054,1.021,2.781c0.682,0.729,1.52,1.092,2.516,1.092
	c1.027,0,1.879-0.357,2.558-1.074c0.677-0.715,1.017-1.65,1.017-2.811c0-1.135-0.34-2.054-1.017-2.757
	C195.57,32.001,194.715,31.648,193.68,31.648z"/>
<path fill="#929497" d="M202.727,23.93H206v18.077h-3.273V23.93z"/>
<path fill="#929497" d="M83.311,45.556h3.56c1.927,0,3.315,0.178,4.166,0.533s1.522,0.93,2.014,1.727
	c0.492,0.795,0.737,1.748,0.737,2.857c0,1.23-0.322,2.254-0.965,3.069c-0.644,0.815-1.517,1.383-2.619,1.702
	c-0.647,0.184-1.826,0.274-3.537,0.274v7.47h-3.355L83.311,45.556L83.311,45.556z M86.667,52.448h1.067
	c0.839,0,1.423-0.061,1.751-0.182c0.326-0.119,0.584-0.318,0.772-0.596c0.188-0.275,0.282-0.611,0.282-1.005
	c0-0.683-0.264-1.179-0.791-1.49c-0.385-0.231-1.096-0.35-2.135-0.35h-0.947L86.667,52.448L86.667,52.448z"/>
<path fill="#929497" d="M95.333,50.146h2.805v1.644c0.303-0.646,0.707-1.14,1.211-1.476c0.503-0.336,1.055-0.502,1.654-0.502
	c0.424,0,0.867,0.111,1.33,0.334l-1.019,2.817c-0.384-0.19-0.7-0.288-0.947-0.288c-0.503,0-0.929,0.313-1.276,0.936
	c-0.347,0.623-0.521,1.847-0.521,3.668l0.012,0.637v5.273h-3.248L95.333,50.146L95.333,50.146z"/>
<path fill="#929497" d="M108.848,49.812c1.231,0,2.389,0.308,3.471,0.922c1.084,0.615,1.929,1.451,2.535,2.507
	c0.607,1.055,0.912,2.192,0.912,3.416c0,1.229-0.307,2.382-0.918,3.452s-1.443,1.908-2.498,2.512
	c-1.056,0.604-2.219,0.904-3.488,0.904c-1.87,0-3.467-0.666-4.79-1.996s-1.983-2.946-1.983-4.848c0-2.039,0.746-3.736,2.241-5.096
	C105.641,50.401,107.146,49.812,108.848,49.812z M108.902,52.892c-1.016,0-1.862,0.354-2.539,1.062
	c-0.678,0.707-1.016,1.612-1.016,2.715c0,1.135,0.334,2.056,1.004,2.758c0.668,0.703,1.515,1.056,2.539,1.056
	s1.877-0.355,2.558-1.067c0.682-0.711,1.021-1.626,1.021-2.745c0-1.118-0.334-2.027-1.003-2.727
	C110.797,53.242,109.943,52.892,108.902,52.892z"/>
<path fill="#929497" d="M120.459,50.146v1.439c0.592-0.592,1.23-1.035,1.918-1.331s1.423-0.442,2.207-0.442
	c1.701,0,3.148,0.644,4.339,1.93c1.19,1.287,1.786,2.937,1.786,4.951c0,1.94-0.615,3.565-1.846,4.873
	c-1.231,1.307-2.689,1.959-4.377,1.959c-0.75,0-1.449-0.133-2.098-0.401c-0.646-0.269-1.291-0.705-1.931-1.313v6.15h-3.248V50.146
	H120.459z M123.9,52.831c-1.03,0-1.887,0.352-2.565,1.055s-1.019,1.623-1.019,2.758c0,1.158,0.34,2.097,1.019,2.812
	c0.681,0.716,1.535,1.073,2.565,1.073c0.998,0,1.841-0.363,2.523-1.092c0.684-0.728,1.024-1.653,1.024-2.78
	c0-1.119-0.335-2.035-1.007-2.751C125.77,53.188,124.923,52.831,123.9,52.831z"/>
<path fill="#929497" d="M145.65,57.614h-10.514c0.152,0.927,0.559,1.664,1.217,2.212c0.66,0.547,1.5,0.821,2.523,0.821
	c1.223,0,2.273-0.429,3.152-1.283l2.758,1.295c-0.688,0.975-1.512,1.695-2.471,2.164c-0.959,0.467-2.098,0.701-3.416,0.701
	c-2.045,0-3.711-0.646-4.998-1.938c-1.287-1.29-1.93-2.906-1.93-4.85c0-1.989,0.641-3.643,1.924-4.956
	c1.281-1.314,2.891-1.972,4.823-1.972c2.056,0,3.726,0.656,5.013,1.972c1.285,1.313,1.93,3.051,1.93,5.209L145.65,57.614z
	 M142.377,55.037c-0.216-0.728-0.643-1.319-1.277-1.774c-0.638-0.455-1.375-0.684-2.217-0.684c-0.912,0-1.713,0.256-2.4,0.768
	c-0.434,0.32-0.834,0.883-1.2,1.69H142.377z"/>
<path fill="#929497" d="M147.116,50.146h2.805v1.644c0.304-0.646,0.707-1.14,1.211-1.476c0.503-0.336,1.056-0.502,1.654-0.502
	c0.424,0,0.866,0.111,1.33,0.334l-1.019,2.817c-0.385-0.19-0.701-0.288-0.947-0.288c-0.504,0-0.93,0.313-1.276,0.936
	c-0.347,0.623-0.521,1.847-0.521,3.668l0.012,0.637v5.273h-3.248L147.116,50.146L147.116,50.146z"/>
<path fill="#929497" d="M157.357,45.339h3.271v4.807h1.943v2.817h-1.943v10.226h-3.271V52.963h-1.678v-2.817h1.678V45.339z"/>
<path fill="#929497" d="M164.102,50.146h3.347l3.387,8.185l3.738-8.185h3.354l-8.168,17.814h-3.38l2.684-5.745L164.102,50.146z"/>
<g>
	
		<rect x="13.481" y="36.059" transform="matrix(-0.8025 0.5966 -0.5966 -0.8025 93.3644 50.6003)" fill="#6B469B" width="49.653" height="9.385"/>
	<path fill="#6B469B" d="M73.888,49.217c-0.626-2.521-2.558-5.957-5.792-10.311l-5.982-8.046L22.263,60.485l5.639,7.584
		L44.78,55.522c2.873,3.869,5.061,6.375,6.564,7.529c2.574,1.955,5.324,2.975,8.246,3.059c2.925,0.084,5.775-0.907,8.559-2.977
		c2.508-1.865,4.25-4.021,5.222-6.468C74.341,54.219,74.514,51.737,73.888,49.217z M60.965,58.086l-4.649-7.616
		c-1.29,0.18-2.636-0.31-3.494-1.41c-1.28-1.644-0.987-4.012,0.653-5.289c1.643-1.278,4.008-0.985,5.288,0.652
		c0.857,1.102,1.005,2.526,0.517,3.735l6.256,6.368L60.965,58.086z"/>
</g>
<g>
	<path fill="#929497" d="M188.266,50.617c0,0.614-0.154,1.188-0.463,1.718c-0.308,0.529-0.729,0.948-1.261,1.256
		c-0.532,0.309-1.108,0.462-1.728,0.462c-0.615,0-1.189-0.153-1.726-0.462c-0.532-0.308-0.955-0.727-1.263-1.256
		c-0.309-0.529-0.463-1.104-0.463-1.723c0-0.615,0.154-1.188,0.463-1.721c0.308-0.531,0.729-0.951,1.261-1.259
		c0.533-0.308,1.108-0.462,1.728-0.462s1.194,0.154,1.728,0.462s0.953,0.728,1.261,1.259
		C188.111,49.424,188.266,49.998,188.266,50.617z M187.553,50.626c0-0.764-0.266-1.41-0.799-1.943s-1.176-0.799-1.93-0.799
		c-0.76,0-1.407,0.266-1.943,0.797c-0.535,0.531-0.804,1.172-0.804,1.924c0,0.485,0.121,0.938,0.362,1.354
		c0.242,0.417,0.576,0.747,1.002,0.99c0.427,0.243,0.885,0.364,1.373,0.364c0.485,0,0.942-0.121,1.369-0.362
		c0.426-0.241,0.762-0.57,1.004-0.985C187.432,51.55,187.553,51.104,187.553,50.626z M183.389,48.733h1.67
		c0.353,0,0.609,0.039,0.774,0.117s0.298,0.201,0.397,0.369c0.101,0.168,0.151,0.371,0.151,0.608c0,0.2-0.03,0.364-0.093,0.493
		c-0.063,0.127-0.18,0.253-0.35,0.376c0.139,0.077,0.232,0.165,0.283,0.263s0.082,0.27,0.096,0.516
		c0.021,0.469,0.041,0.741,0.061,0.817c0.02,0.077,0.073,0.149,0.159,0.22h-0.945c-0.041-0.104-0.067-0.188-0.079-0.258
		c-0.014-0.068-0.021-0.188-0.023-0.355c-0.01-0.332-0.027-0.539-0.055-0.616c-0.026-0.078-0.074-0.138-0.142-0.177
		s-0.203-0.059-0.408-0.059h-0.67v1.465h-0.829v-3.779H183.389z M184.217,49.46v0.896h0.693c0.267,0,0.443-0.037,0.531-0.108
		c0.086-0.071,0.131-0.188,0.131-0.347s-0.043-0.272-0.129-0.34c-0.086-0.068-0.262-0.102-0.529-0.102H184.217z"/>
</g>
<g>
	<path fill="#6B469B" d="M83.253,75.302h1.792c1.027,0,1.72,0.045,2.079,0.135c0.514,0.126,0.934,0.386,1.26,0.779
		s0.489,0.888,0.489,1.482c0,0.6-0.159,1.094-0.477,1.483c-0.318,0.389-0.756,0.65-1.314,0.785c-0.408,0.098-1.17,0.146-2.287,0.146
		h-0.642v4.183h-0.899V75.302z M84.152,76.183v3.051l1.522,0.019c0.615,0,1.066-0.057,1.351-0.168
		c0.285-0.112,0.509-0.293,0.672-0.543s0.245-0.53,0.245-0.84c0-0.301-0.082-0.576-0.245-0.826s-0.378-0.429-0.645-0.534
		c-0.267-0.105-0.704-0.158-1.312-0.158H84.152z"/>
	<path fill="#6B469B" d="M89.893,77.644h0.874v0.972c0.261-0.383,0.536-0.669,0.826-0.858s0.591-0.284,0.905-0.284
		c0.236,0,0.489,0.075,0.758,0.226l-0.446,0.722c-0.18-0.077-0.33-0.116-0.453-0.116c-0.285,0-0.561,0.117-0.825,0.352
		c-0.265,0.234-0.467,0.599-0.605,1.092c-0.106,0.379-0.159,1.146-0.159,2.299v2.25h-0.874V77.644z"/>
	<path fill="#6B469B" d="M96.77,77.473c1.025,0,1.875,0.371,2.548,1.112c0.612,0.677,0.918,1.478,0.918,2.403
		c0,0.929-0.324,1.741-0.971,2.437c-0.647,0.695-1.479,1.042-2.496,1.042c-1.021,0-1.855-0.347-2.502-1.042
		c-0.647-0.695-0.971-1.508-0.971-2.437c0-0.921,0.306-1.721,0.918-2.397C94.89,77.846,95.741,77.473,96.77,77.473z M96.767,78.31
		c-0.712,0-1.323,0.264-1.834,0.789c-0.512,0.526-0.767,1.162-0.767,1.908c0,0.48,0.117,0.929,0.35,1.345
		c0.233,0.416,0.548,0.736,0.945,0.963c0.397,0.227,0.833,0.34,1.307,0.34s0.91-0.113,1.307-0.34
		c0.396-0.227,0.711-0.547,0.945-0.963c0.233-0.416,0.35-0.864,0.35-1.345c0-0.746-0.257-1.382-0.77-1.908
		C98.085,78.573,97.475,78.31,96.767,78.31z"/>
	<path fill="#6B469B" d="M102.253,75.174h0.856v2.47h1.357v0.74h-1.357v5.912h-0.856v-5.912h-1.168v-0.74h1.168V75.174z"/>
	<path fill="#6B469B" d="M111.038,82.089l0.722,0.379c-0.236,0.465-0.51,0.84-0.82,1.125s-0.659,0.502-1.047,0.651
		c-0.387,0.148-0.826,0.223-1.315,0.223c-1.085,0-1.935-0.355-2.546-1.066c-0.612-0.712-0.918-1.516-0.918-2.412
		c0-0.844,0.259-1.596,0.777-2.257c0.656-0.839,1.535-1.259,2.637-1.259c1.135,0,2.041,0.43,2.718,1.29
		c0.481,0.607,0.726,1.365,0.734,2.274h-5.985c0.016,0.772,0.263,1.406,0.74,1.9s1.067,0.741,1.77,0.741
		c0.338,0,0.668-0.06,0.988-0.177c0.32-0.118,0.593-0.274,0.817-0.469C110.533,82.838,110.777,82.523,111.038,82.089z
		 M111.038,80.297c-0.114-0.456-0.28-0.821-0.499-1.094c-0.219-0.273-0.508-0.493-0.866-0.661c-0.359-0.167-0.737-0.25-1.133-0.25
		c-0.653,0-1.214,0.21-1.683,0.63c-0.344,0.306-0.604,0.764-0.778,1.375H111.038z"/>
	<path fill="#6B469B" d="M119.719,79.025l-0.678,0.422c-0.587-0.778-1.387-1.168-2.4-1.168c-0.811,0-1.483,0.261-2.019,0.782
		c-0.536,0.521-0.804,1.154-0.804,1.899c0,0.484,0.123,0.94,0.37,1.368c0.246,0.427,0.584,0.759,1.014,0.995
		s0.911,0.354,1.444,0.354c0.977,0,1.775-0.39,2.395-1.168l0.678,0.446c-0.317,0.479-0.744,0.851-1.281,1.114
		c-0.535,0.264-1.146,0.396-1.83,0.396c-1.053,0-1.924-0.334-2.617-1.003c-0.693-0.668-1.039-1.481-1.039-2.439
		c0-0.644,0.162-1.242,0.485-1.794c0.324-0.553,0.77-0.983,1.336-1.293c0.567-0.311,1.2-0.465,1.901-0.465
		c0.44,0,0.865,0.067,1.275,0.201c0.41,0.135,0.757,0.311,1.043,0.526C119.277,78.416,119.52,78.691,119.719,79.025z"/>
	<path fill="#6B469B" d="M121.797,75.174h0.855v2.47h1.357v0.74h-1.357v5.912h-0.855v-5.912h-1.168v-0.74h1.168V75.174z"/>
	<path fill="#6B469B" d="M125.277,74.904c0.195,0,0.361,0.069,0.5,0.208c0.138,0.139,0.207,0.306,0.207,0.501
		c0,0.192-0.069,0.357-0.207,0.495c-0.139,0.139-0.305,0.208-0.5,0.208c-0.19,0-0.355-0.069-0.492-0.208
		c-0.139-0.138-0.207-0.303-0.207-0.495c0-0.195,0.068-0.362,0.207-0.501C124.922,74.974,125.087,74.904,125.277,74.904z
		 M124.853,77.644h0.856v6.652h-0.856V77.644z"/>
	<path fill="#6B469B" d="M127.175,77.644h0.856v1.192c0.342-0.457,0.721-0.798,1.137-1.024c0.416-0.226,0.869-0.339,1.357-0.339
		c0.498,0,0.939,0.126,1.324,0.379s0.67,0.593,0.853,1.021c0.184,0.429,0.275,1.095,0.275,2v3.424h-0.856v-3.173
		c0-0.767-0.031-1.278-0.095-1.535c-0.099-0.44-0.29-0.771-0.571-0.993c-0.281-0.223-0.648-0.334-1.1-0.334
		c-0.519,0-0.982,0.172-1.393,0.514c-0.409,0.343-0.68,0.767-0.81,1.272c-0.081,0.33-0.122,0.933-0.122,1.81v2.439h-0.856V77.644z"
		/>
	<path fill="#6B469B" d="M140.234,77.644h0.855v5.301c0,0.934-0.082,1.616-0.244,2.049c-0.225,0.611-0.613,1.082-1.168,1.412
		s-1.221,0.495-2,0.495c-0.57,0-1.083-0.081-1.537-0.242c-0.455-0.161-0.824-0.378-1.109-0.649c-0.286-0.272-0.549-0.67-0.789-1.193
		h0.93c0.252,0.44,0.579,0.767,0.979,0.979c0.4,0.212,0.896,0.318,1.488,0.318c0.583,0,1.076-0.109,1.479-0.326
		c0.401-0.218,0.688-0.491,0.859-0.82c0.172-0.329,0.258-0.859,0.258-1.593V83.03c-0.322,0.407-0.717,0.721-1.182,0.938
		s-0.959,0.327-1.48,0.327c-0.613,0-1.188-0.151-1.727-0.455s-0.955-0.713-1.248-1.227c-0.295-0.514-0.441-1.078-0.441-1.693
		s0.152-1.189,0.459-1.722c0.307-0.531,0.729-0.952,1.27-1.262c0.541-0.311,1.111-0.465,1.711-0.465
		c0.498,0,0.963,0.103,1.393,0.309c0.431,0.206,0.846,0.545,1.246,1.018V77.644z M137.709,78.298c-0.485,0-0.936,0.117-1.352,0.352
		s-0.742,0.559-0.979,0.972c-0.236,0.414-0.354,0.861-0.354,1.343c0,0.729,0.245,1.333,0.733,1.81
		c0.49,0.477,1.123,0.716,1.902,0.716c0.786,0,1.419-0.236,1.898-0.71c0.479-0.473,0.719-1.094,0.719-1.864
		c0-0.502-0.111-0.949-0.33-1.343c-0.221-0.393-0.533-0.704-0.936-0.932C138.607,78.412,138.174,78.298,137.709,78.298z"/>
	<path fill="#6B469B" d="M146.062,74.904c0.194,0,0.361,0.069,0.499,0.208c0.139,0.139,0.207,0.306,0.207,0.501
		c0,0.192-0.068,0.357-0.207,0.495c-0.138,0.139-0.305,0.208-0.499,0.208c-0.19,0-0.355-0.069-0.493-0.208
		c-0.139-0.138-0.207-0.303-0.207-0.495c0-0.195,0.068-0.362,0.207-0.501C145.706,74.974,145.871,74.904,146.062,74.904z
		 M145.637,77.644h0.855v6.652h-0.855V77.644z"/>
	<path fill="#6B469B" d="M154.598,75.075v9.221h-0.844v-1.144c-0.357,0.437-0.761,0.765-1.207,0.984
		c-0.446,0.221-0.935,0.33-1.465,0.33c-0.941,0-1.745-0.341-2.412-1.023c-0.666-0.683-0.999-1.514-0.999-2.492
		c0-0.958,0.337-1.777,1.009-2.458s1.482-1.021,2.428-1.021c0.546,0,1.04,0.116,1.482,0.349c0.442,0.231,0.83,0.58,1.164,1.045
		v-3.791H154.598z M151.178,78.298c-0.477,0-0.916,0.117-1.319,0.352c-0.403,0.233-0.724,0.563-0.962,0.986
		c-0.238,0.423-0.357,0.871-0.357,1.343c0,0.469,0.12,0.917,0.36,1.344c0.24,0.428,0.563,0.761,0.968,0.999
		c0.405,0.238,0.84,0.357,1.305,0.357c0.468,0,0.912-0.118,1.33-0.354c0.42-0.236,0.742-0.556,0.969-0.959s0.339-0.857,0.339-1.362
		c0-0.769-0.253-1.412-0.761-1.93C152.543,78.557,151.918,78.298,151.178,78.298z"/>
	<path fill="#6B469B" d="M161.824,82.089l0.721,0.379c-0.236,0.465-0.51,0.84-0.819,1.125s-0.659,0.502-1.046,0.651
		c-0.389,0.148-0.827,0.223-1.316,0.223c-1.086,0-1.934-0.355-2.546-1.066c-0.612-0.712-0.918-1.516-0.918-2.412
		c0-0.844,0.259-1.596,0.776-2.257c0.658-0.839,1.537-1.259,2.639-1.259c1.134,0,2.039,0.43,2.717,1.29
		c0.481,0.607,0.727,1.365,0.734,2.274h-5.986c0.017,0.772,0.264,1.406,0.741,1.9s1.067,0.741,1.769,0.741
		c0.34,0,0.669-0.06,0.989-0.177c0.32-0.118,0.593-0.274,0.817-0.469C161.32,82.838,161.563,82.523,161.824,82.089z M161.824,80.297
		c-0.114-0.456-0.281-0.821-0.499-1.094c-0.219-0.273-0.507-0.493-0.866-0.661c-0.359-0.167-0.736-0.25-1.133-0.25
		c-0.652,0-1.214,0.21-1.684,0.63c-0.343,0.306-0.602,0.764-0.777,1.375H161.824z"/>
	<path fill="#6B469B" d="M170.676,77.644v6.652h-0.844v-1.144c-0.357,0.437-0.761,0.765-1.207,0.984
		c-0.446,0.221-0.935,0.33-1.465,0.33c-0.941,0-1.745-0.341-2.412-1.023c-0.666-0.683-0.999-1.514-0.999-2.492
		c0-0.958,0.337-1.777,1.009-2.458s1.481-1.021,2.428-1.021c0.546,0,1.04,0.116,1.482,0.349c0.442,0.231,0.83,0.58,1.164,1.045
		v-1.223H170.676z M167.256,78.298c-0.477,0-0.916,0.117-1.319,0.352c-0.403,0.233-0.724,0.563-0.962,0.986
		c-0.238,0.423-0.357,0.871-0.357,1.343c0,0.469,0.12,0.917,0.36,1.344c0.24,0.428,0.563,0.761,0.968,0.999
		c0.405,0.238,0.84,0.357,1.305,0.357c0.468,0,0.911-0.118,1.33-0.354c0.42-0.236,0.742-0.556,0.969-0.959s0.339-0.857,0.339-1.362
		c0-0.769-0.253-1.412-0.761-1.93C168.621,78.557,167.996,78.298,167.256,78.298z"/>
	<path fill="#6B469B" d="M175.634,78.371l-0.55,0.568c-0.459-0.444-0.906-0.666-1.343-0.666c-0.278,0-0.517,0.092-0.714,0.275
		c-0.199,0.183-0.298,0.397-0.298,0.642c0,0.216,0.081,0.422,0.245,0.617c0.163,0.2,0.506,0.435,1.029,0.703
		c0.637,0.331,1.07,0.648,1.299,0.954c0.225,0.31,0.338,0.658,0.338,1.046c0,0.546-0.193,1.009-0.576,1.388
		c-0.384,0.379-0.863,0.568-1.439,0.568c-0.384,0-0.75-0.083-1.1-0.25c-0.349-0.167-0.637-0.397-0.865-0.691l0.537-0.611
		c0.438,0.493,0.901,0.74,1.392,0.74c0.343,0,0.636-0.11,0.876-0.331c0.241-0.22,0.361-0.479,0.361-0.776
		c0-0.244-0.079-0.462-0.238-0.654c-0.16-0.188-0.52-0.424-1.078-0.709c-0.602-0.31-1.01-0.615-1.227-0.917
		c-0.216-0.302-0.324-0.646-0.324-1.033c0-0.506,0.172-0.926,0.518-1.26s0.781-0.501,1.308-0.501
		C174.396,77.473,175.014,77.771,175.634,78.371z"/>
	<path fill="#6B469B" d="M177.779,82.951c0.207,0,0.385,0.073,0.531,0.22s0.221,0.326,0.221,0.538c0,0.208-0.074,0.386-0.221,0.535
		c-0.146,0.148-0.324,0.223-0.531,0.223c-0.209,0-0.386-0.074-0.533-0.223c-0.146-0.149-0.219-0.327-0.219-0.535
		c0-0.212,0.072-0.392,0.219-0.538C177.394,83.024,177.57,82.951,177.779,82.951z"/>
</g>
</svg>
