<?xml version="1.0" encoding="utf-8"?>
<!-- Generator: Adobe Illustrator 15.0.0, SVG Export Plug-In . SVG Version: 6.00 Build 0)  -->
<!DOCTYPE svg PUBLIC "-//W3C//DTD SVG 1.1//EN" "http://www.w3.org/Graphics/SVG/1.1/DTD/svg11.dtd">
<svg version="1.1" id="Layer_1" xmlns="http://www.w3.org/2000/svg" xmlns:xlink="http://www.w3.org/1999/xlink" x="0px" y="0px"
	 width="208px" height="91.644px" viewBox="0 0 208 91.644" enable-background="new 0 0 208 91.644" xml:space="preserve">
<path fill="#FFFFFF" d="M21.441,44.201c-0.09-0.048-0.187-0.093-0.274-0.142c-2.16-1.199-4.052-2.894-5.676-5.076
	c-1.903-2.561-3.05-5.322-3.442-8.282c-0.39-2.961,0.01-5.774,1.202-8.44c1.194-2.666,3.109-4.979,5.746-6.938
	c3.784-2.815,7.93-3.888,12.434-3.221c4.505,0.668,8.163,2.888,10.971,6.666c1.654,2.226,2.757,4.689,3.311,7.389l7.805-5.802
	c-0.919-2.459-2.163-4.755-3.744-6.882c-2.851-3.834-6.442-6.72-10.777-8.659c-4.334-1.938-8.697-2.66-13.085-2.165
	c-4.388,0.495-8.554,2.209-12.496,5.139c-6.093,4.527-9.631,10.198-10.617,17.01C1.812,31.61,3.602,38.089,8.171,44.235
	c1.698,2.285,3.53,4.195,5.491,5.748L21.441,44.201z"/>
<path fill="#C1C1C1" d="M98.758,5.829L96.41,8.067c-1.597-1.688-3.394-2.532-5.39-2.532c-1.685,0-3.104,0.576-4.258,1.728
	c-1.154,1.152-1.731,2.572-1.731,4.26c0,1.176,0.256,2.22,0.767,3.132c0.511,0.912,1.234,1.628,2.168,2.147
	c0.934,0.521,1.972,0.78,3.114,0.78c0.974,0,1.864-0.182,2.671-0.546c0.806-0.364,1.692-1.026,2.659-1.986l2.276,2.375
	c-1.303,1.271-2.534,2.153-3.692,2.645c-1.158,0.492-2.481,0.737-3.968,0.737c-2.741,0-4.985-0.869-6.731-2.607
	c-1.747-1.738-2.62-3.966-2.62-6.683c0-1.758,0.397-3.321,1.193-4.688c0.795-1.366,1.934-2.465,3.417-3.296
	c1.483-0.831,3.079-1.247,4.789-1.247c1.455,0,2.855,0.307,4.202,0.921C96.623,3.822,97.783,4.696,98.758,5.829z"/>
<path fill="#C1C1C1" d="M110.347,7.321h3.272v13.042h-3.272v-1.378c-0.64,0.607-1.279,1.045-1.923,1.313
	c-0.643,0.268-1.338,0.401-2.088,0.401c-1.685,0-3.142-0.653-4.371-1.96c-1.229-1.307-1.844-2.931-1.844-4.873
	c0-2.014,0.595-3.664,1.784-4.951c1.189-1.287,2.633-1.93,4.334-1.93c0.781,0,1.516,0.148,2.202,0.443
	c0.687,0.296,1.321,0.739,1.904,1.331V7.321z M106.907,10.006c-1.011,0-1.852,0.358-2.521,1.073
	c-0.669,0.715-1.004,1.632-1.004,2.751c0,1.127,0.34,2.054,1.021,2.781c0.682,0.727,1.52,1.091,2.516,1.091
	c1.026,0,1.879-0.358,2.557-1.073c0.677-0.715,1.016-1.652,1.016-2.811c0-1.135-0.339-2.054-1.016-2.757
	C108.797,10.358,107.942,10.006,106.907,10.006z"/>
<path fill="#C1C1C1" d="M116.292,7.321h3.271V8.82c0.561-0.615,1.182-1.075,1.866-1.379c0.684-0.303,1.429-0.455,2.237-0.455
	c0.814,0,1.551,0.2,2.207,0.599c0.655,0.4,1.184,0.983,1.582,1.75c0.521-0.767,1.158-1.35,1.914-1.75
	c0.756-0.399,1.582-0.599,2.478-0.599c0.928,0,1.743,0.215,2.446,0.647c0.705,0.432,1.209,0.995,1.519,1.69
	c0.308,0.695,0.462,1.826,0.462,3.393v7.648h-3.297v-6.617c0-1.479-0.184-2.479-0.551-3.003c-0.367-0.524-0.92-0.785-1.654-0.785
	c-0.561,0-1.061,0.16-1.504,0.479c-0.443,0.32-0.773,0.761-0.989,1.325c-0.216,0.563-0.323,1.468-0.323,2.715v5.886h-3.297v-6.317
	c0-1.167-0.086-2.012-0.259-2.536c-0.172-0.523-0.431-0.913-0.774-1.168c-0.346-0.256-0.762-0.384-1.25-0.384
	c-0.545,0-1.039,0.162-1.484,0.485c-0.443,0.324-0.777,0.777-0.997,1.361s-0.331,1.502-0.331,2.757v5.802h-3.271V7.321
	L116.292,7.321z"/>
<path fill="#C1C1C1" d="M151.844,14.79h-10.514c0.152,0.927,0.559,1.665,1.217,2.212c0.66,0.547,1.5,0.821,2.523,0.821
	c1.223,0,2.273-0.427,3.153-1.283l2.757,1.295c-0.688,0.975-1.512,1.696-2.471,2.164s-2.098,0.701-3.416,0.701
	c-2.047,0-3.713-0.645-5-1.936c-1.286-1.291-1.93-2.907-1.93-4.849c0-1.99,0.642-3.642,1.924-4.957
	c1.283-1.314,2.892-1.972,4.826-1.972c2.053,0,3.724,0.657,5.01,1.972c1.287,1.315,1.931,3.051,1.931,5.208L151.844,14.79z
	 M148.571,12.212c-0.216-0.728-0.643-1.319-1.279-1.774c-0.637-0.456-1.375-0.683-2.215-0.683c-0.914,0-1.714,0.256-2.402,0.767
	c-0.432,0.32-0.832,0.883-1.2,1.69H148.571z"/>
<path fill="#C1C1C1" d="M153.75,7.321h2.805v1.642c0.303-0.647,0.707-1.139,1.21-1.474c0.503-0.336,1.055-0.503,1.653-0.503
	c0.424,0,0.867,0.112,1.332,0.335l-1.02,2.817c-0.384-0.191-0.699-0.288-0.947-0.288c-0.502,0-0.929,0.312-1.277,0.935
	c-0.348,0.623-0.521,1.846-0.521,3.668l0.013,0.635v5.274h-3.25V7.321H153.75z"/>
<path fill="#C1C1C1" d="M167.881,6.986c1.23,0,2.388,0.308,3.471,0.923c1.083,0.615,1.928,1.451,2.535,2.505
	c0.607,1.054,0.91,2.194,0.91,3.417c0,1.231-0.305,2.381-0.916,3.452c-0.611,1.071-1.444,1.908-2.5,2.512
	c-1.055,0.603-2.219,0.905-3.488,0.905c-1.87,0-3.467-0.665-4.789-1.996c-1.323-1.331-1.984-2.947-1.984-4.849
	c0-2.038,0.748-3.736,2.242-5.095C164.672,7.577,166.179,6.986,167.881,6.986z M167.935,10.066c-1.017,0-1.863,0.354-2.54,1.061
	c-0.678,0.707-1.016,1.612-1.016,2.715c0,1.135,0.334,2.054,1.002,2.757c0.668,0.704,1.516,1.055,2.541,1.055
	c1.024,0,1.877-0.356,2.558-1.067s1.021-1.626,1.021-2.746c0-1.119-0.334-2.027-1.002-2.727
	C169.831,10.416,168.976,10.066,167.935,10.066z"/>
<path fill="#C1C1C1" d="M176.857,7.321h3.272v1.336c0.742-0.625,1.414-1.061,2.017-1.305s1.22-0.367,1.851-0.367
	c1.291,0,2.389,0.451,3.291,1.354c0.758,0.767,1.137,1.902,1.137,3.404v8.619h-3.235v-5.711c0-1.557-0.069-2.59-0.209-3.101
	c-0.14-0.511-0.383-0.9-0.729-1.167c-0.347-0.268-0.774-0.401-1.285-0.401c-0.662,0-1.23,0.222-1.705,0.665
	s-0.803,1.056-0.986,1.838c-0.096,0.407-0.145,1.29-0.145,2.646v5.232h-3.271L176.857,7.321L176.857,7.321z"/>
<path fill="#FCFCFC" d="M82.311,23.912h3.333v17.634h-3.333V23.912z"/>
<path fill="#FCFCFC" d="M88.446,28.503h3.272v1.336c0.742-0.625,1.415-1.061,2.017-1.305c0.602-0.244,1.219-0.367,1.85-0.367
	c1.292,0,2.39,0.451,3.292,1.354c0.758,0.767,1.137,1.902,1.137,3.404v8.62h-3.236v-5.712c0-1.557-0.07-2.59-0.209-3.101
	c-0.14-0.511-0.383-0.9-0.729-1.167c-0.347-0.268-0.775-0.401-1.286-0.401c-0.662,0-1.23,0.222-1.704,0.665
	c-0.475,0.443-0.803,1.056-0.987,1.838c-0.096,0.407-0.144,1.29-0.144,2.646v5.232h-3.272L88.446,28.503L88.446,28.503z"/>
<path fill="#FCFCFC" d="M102.96,23.696h3.272v4.807h1.942v2.817h-1.942v10.226h-3.272V31.32h-1.678v-2.817h1.678V23.696z"/>
<path fill="#FCFCFC" d="M122.377,35.972h-10.512c0.151,0.928,0.557,1.666,1.217,2.213c0.658,0.547,1.5,0.82,2.522,0.82
	c1.224,0,2.272-0.427,3.153-1.283l2.757,1.295c-0.688,0.976-1.511,1.696-2.47,2.164c-0.959,0.469-2.099,0.701-3.418,0.701
	c-2.045,0-3.711-0.645-4.998-1.936s-1.93-2.907-1.93-4.849c0-1.99,0.641-3.642,1.924-4.957c1.283-1.314,2.891-1.972,4.824-1.972
	c2.055,0,3.725,0.657,5.012,1.972s1.93,3.051,1.93,5.208L122.377,35.972z M119.105,33.395c-0.216-0.728-0.644-1.319-1.278-1.774
	c-0.638-0.456-1.375-0.683-2.217-0.683c-0.913,0-1.713,0.256-2.4,0.767c-0.433,0.32-0.834,0.883-1.201,1.69H119.105z"/>
<path fill="#FCFCFC" d="M124.054,23.469h3.272v18.078h-3.272V23.469z"/>
<path fill="#FCFCFC" d="M129.327,23.469h3.272v18.078h-3.272V23.469z"/>
<path fill="#FCFCFC" d="M148.024,35.972H137.51c0.152,0.928,0.559,1.666,1.218,2.213s1.5,0.82,2.522,0.82
	c1.224,0,2.273-0.427,3.153-1.283l2.757,1.295c-0.688,0.976-1.511,1.696-2.47,2.164c-0.959,0.469-2.099,0.701-3.417,0.701
	c-2.046,0-3.712-0.645-4.999-1.936s-1.93-2.907-1.93-4.849c0-1.99,0.641-3.642,1.924-4.957c1.282-1.314,2.892-1.972,4.825-1.972
	c2.054,0,3.724,0.657,5.011,1.972s1.931,3.051,1.931,5.208L148.024,35.972z M144.752,33.395c-0.217-0.728-0.644-1.319-1.279-1.774
	c-0.637-0.456-1.375-0.683-2.217-0.683c-0.912,0-1.713,0.256-2.4,0.767c-0.432,0.32-0.833,0.883-1.201,1.69H144.752z"/>
<path fill="#FCFCFC" d="M162.827,31.141l-2.724,1.499c-0.513-0.535-1.019-0.907-1.519-1.115s-1.086-0.312-1.758-0.312
	c-1.226,0-2.216,0.365-2.972,1.095s-1.134,1.666-1.134,2.807c0,1.108,0.363,2.015,1.092,2.717s1.684,1.053,2.869,1.053
	c1.464,0,2.604-0.5,3.42-1.499l2.581,1.768c-1.399,1.818-3.373,2.729-5.923,2.729c-2.293,0-4.09-0.679-5.389-2.038
	c-1.299-1.358-1.947-2.948-1.947-4.771c0-1.263,0.314-2.426,0.947-3.489c0.631-1.063,1.512-1.898,2.644-2.505
	c1.131-0.607,2.396-0.911,3.794-0.911c1.294,0,2.458,0.257,3.488,0.773C161.329,29.457,162.17,30.19,162.827,31.141z"/>
<path fill="#FCFCFC" d="M165.926,23.696h3.271v4.807h1.942v2.817h-1.942v10.226h-3.271V31.32h-1.678v-2.817h1.678V23.696z"/>
<path fill="#FCFCFC" d="M172.633,28.503h3.309v6.281c0,1.223,0.084,2.072,0.252,2.547c0.168,0.477,0.439,0.845,0.813,1.109
	c0.371,0.264,0.83,0.396,1.375,0.396s1.007-0.13,1.388-0.39c0.38-0.26,0.663-0.643,0.847-1.146c0.137-0.375,0.205-1.179,0.205-2.41
	v-6.389h3.271v5.526c0,2.278-0.18,3.836-0.539,4.675c-0.439,1.022-1.088,1.808-1.942,2.354s-1.942,0.821-3.261,0.821
	c-1.432,0-2.587-0.319-3.471-0.959c-0.883-0.639-1.504-1.53-1.863-2.673c-0.256-0.792-0.385-2.23-0.385-4.316v-5.428H172.633z"/>
<path fill="#FCFCFC" d="M196.12,28.503h3.272v13.043h-3.272v-1.379c-0.639,0.607-1.279,1.045-1.922,1.313
	c-0.643,0.269-1.339,0.401-2.089,0.401c-1.685,0-3.142-0.653-4.37-1.96s-1.844-2.931-1.844-4.873c0-2.014,0.596-3.664,1.784-4.951
	c1.188-1.287,2.634-1.93,4.334-1.93c0.782,0,1.517,0.148,2.202,0.443c0.688,0.296,1.322,0.739,1.904,1.331V28.503z M192.68,31.188
	c-1.012,0-1.852,0.358-2.521,1.073c-0.668,0.715-1.004,1.632-1.004,2.751c0,1.127,0.34,2.053,1.021,2.781
	c0.681,0.728,1.519,1.091,2.515,1.091c1.026,0,1.879-0.357,2.558-1.072c0.676-0.715,1.016-1.652,1.016-2.812
	c0-1.135-0.34-2.054-1.016-2.757C194.571,31.541,193.715,31.188,192.68,31.188z"/>
<path fill="#FCFCFC" d="M201.728,23.469H205v18.078h-3.273L201.728,23.469L201.728,23.469z"/>
<path fill="#FCFCFC" d="M82.311,45.094h3.56c1.926,0,3.315,0.179,4.166,0.534s1.522,0.93,2.014,1.727
	c0.492,0.795,0.737,1.748,0.737,2.857c0,1.23-0.322,2.254-0.965,3.069c-0.644,0.815-1.517,1.383-2.619,1.702
	c-0.647,0.184-1.827,0.274-3.537,0.274v7.47h-3.356V45.094L82.311,45.094z M85.667,51.987h1.067c0.839,0,1.422-0.061,1.75-0.182
	c0.327-0.119,0.585-0.318,0.773-0.595s0.282-0.61,0.282-1.005c0-0.682-0.264-1.178-0.791-1.49c-0.384-0.232-1.095-0.35-2.134-0.35
	h-0.947V51.987z"/>
<path fill="#FCFCFC" d="M94.332,49.685h2.805v1.644c0.303-0.646,0.707-1.14,1.21-1.476c0.503-0.336,1.055-0.502,1.654-0.502
	c0.424,0,0.867,0.111,1.331,0.334l-1.019,2.817c-0.384-0.19-0.7-0.288-0.947-0.288c-0.503,0-0.929,0.313-1.277,0.936
	c-0.348,0.623-0.521,1.847-0.521,3.668l0.012,0.637v5.273h-3.249L94.332,49.685L94.332,49.685z"/>
<path fill="#FCFCFC" d="M107.849,49.351c1.231,0,2.388,0.308,3.471,0.922c1.083,0.615,1.929,1.451,2.535,2.506
	c0.606,1.056,0.911,2.193,0.911,3.416c0,1.23-0.307,2.383-0.917,3.453c-0.611,1.07-1.444,1.908-2.5,2.512s-2.218,0.904-3.488,0.904
	c-1.87,0-3.466-0.666-4.789-1.996c-1.323-1.33-1.984-2.946-1.984-4.849c0-2.038,0.747-3.735,2.242-5.095
	C104.64,49.94,106.146,49.351,107.849,49.351z M107.903,52.431c-1.017,0-1.863,0.354-2.54,1.062s-1.015,1.612-1.015,2.715
	c0,1.135,0.334,2.056,1.002,2.758c0.668,0.703,1.516,1.056,2.54,1.056s1.877-0.355,2.558-1.067c0.682-0.711,1.021-1.626,1.021-2.745
	c0-1.118-0.334-2.027-1.004-2.727C109.797,52.781,108.943,52.431,107.903,52.431z"/>
<path fill="#FCFCFC" d="M119.459,49.685v1.439c0.592-0.592,1.23-1.035,1.918-1.331c0.688-0.296,1.422-0.442,2.207-0.442
	c1.701,0,3.147,0.644,4.338,1.93c1.191,1.287,1.787,2.937,1.787,4.951c0,1.94-0.617,3.565-1.847,4.873
	c-1.229,1.307-2.688,1.959-4.375,1.959c-0.751,0-1.45-0.133-2.098-0.401s-1.291-0.705-1.931-1.313v6.15h-3.248V49.685H119.459z
	 M122.9,52.371c-1.03,0-1.886,0.353-2.565,1.055c-0.678,0.703-1.019,1.623-1.019,2.759c0,1.157,0.339,2.096,1.019,2.811
	c0.68,0.716,1.535,1.072,2.565,1.072c0.999,0,1.841-0.362,2.522-1.09c0.685-0.729,1.025-1.654,1.025-2.781
	c0-1.119-0.335-2.035-1.007-2.752C124.769,52.729,123.922,52.371,122.9,52.371z"/>
<path fill="#FCFCFC" d="M144.65,57.153h-10.513c0.152,0.928,0.558,1.664,1.217,2.213c0.659,0.547,1.5,0.82,2.523,0.82
	c1.223,0,2.272-0.428,3.152-1.283l2.758,1.296c-0.688,0.975-1.512,1.696-2.471,2.163c-0.959,0.468-2.098,0.701-3.417,0.701
	c-2.046,0-3.712-0.646-4.999-1.937c-1.287-1.29-1.93-2.907-1.93-4.849c0-1.99,0.641-3.644,1.924-4.957
	c1.283-1.314,2.891-1.973,4.824-1.973c2.055,0,3.725,0.657,5.012,1.973c1.287,1.314,1.93,3.051,1.93,5.209L144.65,57.153z
	 M141.377,54.577c-0.215-0.729-0.643-1.319-1.278-1.774c-0.638-0.454-1.375-0.684-2.216-0.684c-0.913,0-1.713,0.256-2.401,0.769
	c-0.433,0.319-0.833,0.883-1.2,1.689H141.377z"/>
<path fill="#FCFCFC" d="M146.116,49.685h2.805v1.644c0.303-0.646,0.707-1.14,1.209-1.476c0.504-0.336,1.056-0.502,1.654-0.502
	c0.424,0,0.867,0.111,1.332,0.334l-1.02,2.817c-0.385-0.19-0.7-0.288-0.947-0.288c-0.503,0-0.929,0.313-1.277,0.936
	c-0.348,0.623-0.521,1.847-0.521,3.668l0.012,0.637v5.273h-3.249V49.685H146.116z"/>
<path fill="#FCFCFC" d="M156.357,44.878h3.272v4.807h1.941v2.817h-1.941v10.226h-3.272V52.502h-1.678v-2.817h1.678V44.878z"/>
<path fill="#FCFCFC" d="M163.103,49.685h3.345l3.389,8.185l3.738-8.185h3.354l-8.17,17.815h-3.379l2.682-5.745L163.103,49.685z"/>
<g>
	
		<rect x="12.48" y="35.599" transform="matrix(-0.8025 0.5966 -0.5966 -0.8025 91.2852 50.3686)" fill="#C1C1C0" width="49.653" height="9.384"/>
	<path fill="#C1C1C0" d="M72.888,48.756c-0.626-2.521-2.558-5.957-5.792-10.312L61.114,30.4L21.263,60.026l5.639,7.584L43.78,55.063
		c2.873,3.867,5.061,6.373,6.564,7.528c2.575,1.955,5.325,2.976,8.247,3.058c2.924,0.086,5.775-0.906,8.558-2.976
		c2.509-1.866,4.251-4.021,5.222-6.468C73.341,53.758,73.514,51.276,72.888,48.756z M59.966,57.625l-4.65-7.616
		c-1.291,0.18-2.636-0.31-3.494-1.41c-1.28-1.644-0.987-4.012,0.653-5.289c1.643-1.278,4.009-0.985,5.289,0.652
		c0.857,1.102,1.005,2.525,0.517,3.735l6.255,6.368L59.966,57.625z"/>
</g>
<g>
	<path fill="#FCFCFC" d="M187.265,50.157c0,0.615-0.154,1.188-0.462,1.718c-0.309,0.528-0.729,0.948-1.262,1.256
		s-1.107,0.462-1.727,0.462c-0.615,0-1.189-0.154-1.725-0.462c-0.534-0.308-0.955-0.728-1.264-1.256
		c-0.308-0.53-0.461-1.104-0.461-1.724c0-0.614,0.154-1.188,0.461-1.719c0.309-0.533,0.729-0.951,1.262-1.26
		c0.533-0.308,1.107-0.462,1.727-0.462s1.193,0.154,1.727,0.462c0.533,0.309,0.953,0.727,1.262,1.26
		C187.111,48.963,187.265,49.538,187.265,50.157z M186.553,50.166c0-0.763-0.266-1.41-0.799-1.942c-0.533-0.533-1.176-0.8-1.93-0.8
		c-0.761,0-1.408,0.267-1.943,0.798c-0.536,0.53-0.805,1.172-0.805,1.922c0,0.486,0.121,0.938,0.363,1.355s0.576,0.747,1.002,0.99
		c0.426,0.242,0.885,0.365,1.373,0.365c0.486,0,0.943-0.121,1.369-0.363c0.426-0.241,0.761-0.57,1.004-0.985
		C186.432,51.089,186.553,50.644,186.553,50.166z M182.388,48.274h1.67c0.353,0,0.608,0.039,0.774,0.117
		c0.166,0.077,0.299,0.2,0.398,0.368s0.15,0.371,0.15,0.608c0,0.201-0.03,0.365-0.092,0.492s-0.178,0.254-0.349,0.377
		c0.138,0.078,0.231,0.164,0.284,0.263c0.051,0.099,0.083,0.271,0.095,0.517c0.021,0.469,0.041,0.74,0.062,0.816
		c0.02,0.077,0.072,0.148,0.16,0.219h-0.945c-0.042-0.103-0.069-0.188-0.081-0.257c-0.013-0.069-0.021-0.188-0.022-0.354
		c-0.009-0.334-0.027-0.539-0.054-0.617s-0.073-0.137-0.142-0.176s-0.205-0.06-0.408-0.06h-0.672v1.464h-0.828L182.388,48.274
		L182.388,48.274z M183.217,49v0.896h0.693c0.266,0,0.443-0.035,0.53-0.107c0.087-0.071,0.131-0.188,0.131-0.348
		c0-0.157-0.043-0.271-0.128-0.34c-0.085-0.067-0.262-0.101-0.529-0.101H183.217z"/>
</g>
<g>
	<path fill="#C1C1C0" d="M83.253,75.302h1.792c1.027,0,1.72,0.045,2.079,0.135c0.514,0.126,0.934,0.386,1.26,0.779
		s0.489,0.888,0.489,1.482c0,0.6-0.159,1.094-0.477,1.483c-0.318,0.389-0.756,0.65-1.314,0.785c-0.408,0.098-1.17,0.146-2.287,0.146
		h-0.642v4.183h-0.899V75.302z M84.152,76.183v3.051l1.522,0.019c0.615,0,1.066-0.057,1.351-0.168
		c0.285-0.112,0.509-0.293,0.672-0.543s0.245-0.53,0.245-0.84c0-0.301-0.082-0.576-0.245-0.826s-0.378-0.429-0.645-0.534
		c-0.267-0.105-0.704-0.158-1.312-0.158H84.152z"/>
	<path fill="#C1C1C0" d="M89.893,77.644h0.874v0.972c0.261-0.383,0.536-0.669,0.826-0.858s0.591-0.284,0.905-0.284
		c0.236,0,0.489,0.075,0.758,0.226l-0.446,0.722c-0.18-0.077-0.33-0.116-0.453-0.116c-0.285,0-0.561,0.117-0.825,0.352
		c-0.265,0.234-0.467,0.599-0.605,1.092c-0.106,0.379-0.159,1.146-0.159,2.299v2.25h-0.874V77.644z"/>
	<path fill="#C1C1C0" d="M96.77,77.473c1.025,0,1.875,0.371,2.548,1.112c0.612,0.677,0.918,1.478,0.918,2.403
		c0,0.929-0.324,1.741-0.971,2.437c-0.647,0.695-1.479,1.042-2.496,1.042c-1.021,0-1.855-0.347-2.502-1.042
		c-0.647-0.695-0.971-1.508-0.971-2.437c0-0.921,0.306-1.721,0.918-2.397C94.89,77.846,95.741,77.473,96.77,77.473z M96.767,78.31
		c-0.712,0-1.323,0.264-1.834,0.789c-0.512,0.526-0.767,1.162-0.767,1.908c0,0.48,0.117,0.929,0.35,1.345
		c0.233,0.416,0.548,0.736,0.945,0.963c0.397,0.227,0.833,0.34,1.307,0.34s0.91-0.113,1.307-0.34
		c0.396-0.227,0.711-0.547,0.945-0.963c0.233-0.416,0.35-0.864,0.35-1.345c0-0.746-0.257-1.382-0.77-1.908
		C98.085,78.573,97.475,78.31,96.767,78.31z"/>
	<path fill="#C1C1C0" d="M102.253,75.174h0.856v2.47h1.357v0.74h-1.357v5.912h-0.856v-5.912h-1.168v-0.74h1.168V75.174z"/>
	<path fill="#C1C1C0" d="M111.038,82.089l0.723,0.379c-0.236,0.465-0.51,0.84-0.82,1.125s-0.66,0.502-1.047,0.651
		c-0.387,0.148-0.826,0.223-1.316,0.223c-1.084,0-1.934-0.355-2.545-1.066c-0.613-0.712-0.918-1.516-0.918-2.412
		c0-0.844,0.258-1.596,0.777-2.257c0.656-0.839,1.535-1.259,2.637-1.259c1.135,0,2.041,0.43,2.717,1.29
		c0.482,0.607,0.727,1.365,0.734,2.274h-5.984c0.016,0.772,0.262,1.406,0.74,1.9c0.477,0.494,1.066,0.741,1.77,0.741
		c0.338,0,0.668-0.06,0.988-0.177c0.32-0.118,0.592-0.274,0.816-0.469C110.534,82.838,110.778,82.523,111.038,82.089z
		 M111.038,80.297c-0.113-0.456-0.279-0.821-0.498-1.094c-0.219-0.273-0.508-0.493-0.867-0.661c-0.359-0.167-0.736-0.25-1.133-0.25
		c-0.652,0-1.213,0.21-1.682,0.63c-0.344,0.306-0.604,0.764-0.779,1.375H111.038z"/>
	<path fill="#C1C1C0" d="M119.719,79.025l-0.678,0.422c-0.588-0.778-1.387-1.168-2.4-1.168c-0.811,0-1.484,0.261-2.02,0.782
		c-0.535,0.521-0.803,1.154-0.803,1.899c0,0.484,0.123,0.94,0.369,1.368c0.246,0.427,0.584,0.759,1.014,0.995
		s0.912,0.354,1.445,0.354c0.977,0,1.775-0.39,2.395-1.168l0.678,0.446c-0.318,0.479-0.744,0.851-1.281,1.114
		c-0.535,0.264-1.146,0.396-1.83,0.396c-1.053,0-1.924-0.334-2.617-1.003c-0.693-0.668-1.039-1.481-1.039-2.439
		c0-0.644,0.162-1.242,0.484-1.794c0.324-0.553,0.77-0.983,1.336-1.293c0.568-0.311,1.201-0.465,1.902-0.465
		c0.439,0,0.865,0.067,1.275,0.201c0.41,0.135,0.756,0.311,1.043,0.526C119.278,78.416,119.52,78.691,119.719,79.025z"/>
	<path fill="#C1C1C0" d="M121.797,75.174h0.855v2.47h1.357v0.74h-1.357v5.912h-0.855v-5.912h-1.168v-0.74h1.168V75.174z"/>
	<path fill="#C1C1C0" d="M125.278,74.904c0.195,0,0.361,0.069,0.5,0.208c0.137,0.139,0.207,0.306,0.207,0.501
		c0,0.192-0.07,0.357-0.207,0.495c-0.139,0.139-0.305,0.208-0.5,0.208c-0.191,0-0.355-0.069-0.492-0.208
		c-0.139-0.138-0.207-0.303-0.207-0.495c0-0.195,0.068-0.362,0.207-0.501C124.922,74.974,125.086,74.904,125.278,74.904z
		 M124.852,77.644h0.857v6.652h-0.857V77.644z"/>
	<path fill="#C1C1C0" d="M127.174,77.644h0.857v1.192c0.342-0.457,0.721-0.798,1.137-1.024c0.416-0.226,0.869-0.339,1.357-0.339
		c0.498,0,0.939,0.126,1.324,0.379s0.67,0.593,0.852,1.021c0.184,0.429,0.275,1.095,0.275,2v3.424h-0.855v-3.173
		c0-0.767-0.031-1.278-0.096-1.535c-0.098-0.44-0.289-0.771-0.57-0.993c-0.281-0.223-0.648-0.334-1.1-0.334
		c-0.52,0-0.982,0.172-1.393,0.514c-0.41,0.343-0.68,0.767-0.811,1.272c-0.08,0.33-0.121,0.933-0.121,1.81v2.439h-0.857V77.644z"/>
	<path fill="#C1C1C0" d="M140.235,77.644h0.855v5.301c0,0.934-0.082,1.616-0.244,2.049c-0.225,0.611-0.613,1.082-1.168,1.412
		s-1.221,0.495-2,0.495c-0.57,0-1.084-0.081-1.537-0.242c-0.455-0.161-0.824-0.378-1.109-0.649c-0.287-0.272-0.549-0.67-0.789-1.193
		h0.93c0.252,0.44,0.578,0.767,0.979,0.979s0.896,0.318,1.488,0.318c0.582,0,1.076-0.109,1.479-0.326
		c0.4-0.218,0.688-0.491,0.859-0.82s0.258-0.859,0.258-1.593V83.03c-0.322,0.407-0.717,0.721-1.182,0.938s-0.959,0.327-1.48,0.327
		c-0.613,0-1.188-0.151-1.727-0.455s-0.955-0.713-1.248-1.227c-0.295-0.514-0.441-1.078-0.441-1.693s0.152-1.189,0.459-1.722
		c0.307-0.531,0.729-0.952,1.27-1.262c0.541-0.311,1.111-0.465,1.711-0.465c0.498,0,0.963,0.103,1.393,0.309
		s0.846,0.545,1.246,1.018V77.644z M137.709,78.298c-0.486,0-0.936,0.117-1.352,0.352s-0.742,0.559-0.979,0.972
		c-0.236,0.414-0.355,0.861-0.355,1.343c0,0.729,0.246,1.333,0.734,1.81c0.49,0.477,1.123,0.716,1.902,0.716
		c0.785,0,1.418-0.236,1.898-0.71c0.479-0.473,0.719-1.094,0.719-1.864c0-0.502-0.111-0.949-0.33-1.343
		c-0.221-0.393-0.533-0.704-0.936-0.932C138.608,78.412,138.174,78.298,137.709,78.298z"/>
	<path fill="#C1C1C0" d="M146.061,74.904c0.195,0,0.361,0.069,0.5,0.208s0.207,0.306,0.207,0.501c0,0.192-0.068,0.357-0.207,0.495
		c-0.139,0.139-0.305,0.208-0.5,0.208c-0.189,0-0.355-0.069-0.492-0.208c-0.139-0.138-0.207-0.303-0.207-0.495
		c0-0.195,0.068-0.362,0.207-0.501C145.706,74.974,145.872,74.904,146.061,74.904z M145.637,77.644h0.855v6.652h-0.855V77.644z"/>
	<path fill="#C1C1C0" d="M154.598,75.075v9.221h-0.844v-1.144c-0.357,0.437-0.762,0.765-1.207,0.984
		c-0.447,0.221-0.936,0.33-1.465,0.33c-0.941,0-1.746-0.341-2.412-1.023s-1-1.514-1-2.492c0-0.958,0.338-1.777,1.01-2.458
		s1.482-1.021,2.428-1.021c0.545,0,1.039,0.116,1.482,0.349c0.441,0.231,0.83,0.58,1.164,1.045v-3.791H154.598z M151.178,78.298
		c-0.477,0-0.916,0.117-1.32,0.352c-0.402,0.233-0.723,0.563-0.961,0.986c-0.238,0.423-0.357,0.871-0.357,1.343
		c0,0.469,0.119,0.917,0.359,1.344c0.24,0.428,0.564,0.761,0.969,0.999s0.84,0.357,1.305,0.357c0.467,0,0.912-0.118,1.33-0.354
		c0.42-0.236,0.742-0.556,0.969-0.959s0.338-0.857,0.338-1.362c0-0.769-0.252-1.412-0.76-1.93
		C152.543,78.557,151.918,78.298,151.178,78.298z"/>
	<path fill="#C1C1C0" d="M161.825,82.089l0.721,0.379c-0.236,0.465-0.51,0.84-0.82,1.125c-0.309,0.285-0.658,0.502-1.045,0.651
		c-0.389,0.148-0.828,0.223-1.316,0.223c-1.086,0-1.934-0.355-2.547-1.066c-0.611-0.712-0.918-1.516-0.918-2.412
		c0-0.844,0.26-1.596,0.777-2.257c0.658-0.839,1.537-1.259,2.639-1.259c1.133,0,2.039,0.43,2.717,1.29
		c0.48,0.607,0.727,1.365,0.734,2.274h-5.986c0.016,0.772,0.264,1.406,0.74,1.9c0.479,0.494,1.068,0.741,1.77,0.741
		c0.34,0,0.668-0.06,0.988-0.177c0.32-0.118,0.594-0.274,0.818-0.469C161.321,82.838,161.563,82.523,161.825,82.089z
		 M161.825,80.297c-0.115-0.456-0.281-0.821-0.5-1.094c-0.219-0.273-0.506-0.493-0.865-0.661c-0.359-0.167-0.736-0.25-1.133-0.25
		c-0.652,0-1.215,0.21-1.684,0.63c-0.344,0.306-0.602,0.764-0.777,1.375H161.825z"/>
	<path fill="#C1C1C0" d="M170.676,77.644v6.652h-0.844v-1.144c-0.357,0.437-0.762,0.765-1.207,0.984
		c-0.447,0.221-0.936,0.33-1.465,0.33c-0.941,0-1.746-0.341-2.412-1.023s-1-1.514-1-2.492c0-0.958,0.338-1.777,1.01-2.458
		s1.48-1.021,2.428-1.021c0.545,0,1.039,0.116,1.482,0.349c0.441,0.231,0.83,0.58,1.164,1.045v-1.223H170.676z M167.256,78.298
		c-0.477,0-0.916,0.117-1.32,0.352c-0.402,0.233-0.723,0.563-0.961,0.986c-0.238,0.423-0.357,0.871-0.357,1.343
		c0,0.469,0.119,0.917,0.359,1.344c0.24,0.428,0.564,0.761,0.969,0.999s0.84,0.357,1.305,0.357c0.467,0,0.91-0.118,1.33-0.354
		s0.742-0.556,0.969-0.959s0.338-0.857,0.338-1.362c0-0.769-0.252-1.412-0.76-1.93C168.622,78.557,167.997,78.298,167.256,78.298z"
		/>
	<path fill="#C1C1C0" d="M175.633,78.371l-0.549,0.568c-0.459-0.444-0.906-0.666-1.344-0.666c-0.277,0-0.516,0.092-0.713,0.275
		c-0.199,0.183-0.299,0.397-0.299,0.642c0,0.216,0.082,0.422,0.246,0.617c0.162,0.2,0.506,0.435,1.029,0.703
		c0.637,0.331,1.07,0.648,1.299,0.954c0.225,0.31,0.338,0.658,0.338,1.046c0,0.546-0.193,1.009-0.576,1.388
		c-0.385,0.379-0.863,0.568-1.439,0.568c-0.385,0-0.75-0.083-1.1-0.25s-0.637-0.397-0.865-0.691l0.537-0.611
		c0.438,0.493,0.9,0.74,1.391,0.74c0.344,0,0.637-0.11,0.877-0.331c0.24-0.22,0.361-0.479,0.361-0.776
		c0-0.244-0.08-0.462-0.238-0.654c-0.16-0.188-0.52-0.424-1.078-0.709c-0.602-0.31-1.01-0.615-1.227-0.917s-0.324-0.646-0.324-1.033
		c0-0.506,0.172-0.926,0.518-1.26s0.781-0.501,1.307-0.501C174.397,77.473,175.014,77.771,175.633,78.371z"/>
	<path fill="#C1C1C0" d="M177.78,82.951c0.207,0,0.385,0.073,0.531,0.22s0.221,0.326,0.221,0.538c0,0.208-0.074,0.386-0.221,0.535
		c-0.146,0.148-0.324,0.223-0.531,0.223c-0.209,0-0.387-0.074-0.533-0.223c-0.146-0.149-0.219-0.327-0.219-0.535
		c0-0.212,0.072-0.392,0.219-0.538S177.571,82.951,177.78,82.951z"/>
</g>
</svg>
